<svg xmlns="http://www.w3.org/2000/svg" width="512" height="512" viewBox="0 0 512 512" fill="none">
  <rect width="512" height="512" rx="100" fill="#F5F1E2"/>
  <path d="M262 140C262 116.804 280.804 98 304 98H362C385.196 98 404 116.804 404 140V372C404 395.196 385.196 414 362 414H304C280.804 414 262 395.196 262 372V140Z" fill="#B86344"/>
  <path d="M108 140C108 116.804 126.804 98 150 98H208C231.196 98 250 116.804 250 140V372C250 395.196 231.196 414 208 414H150C126.804 414 108 395.196 108 372V140Z" fill="#8A9A5B"/>
  <circle cx="179" cy="221" r="40" fill="#F5F1E2"/>
  <circle cx="333" cy="221" r="40" fill="#F5F1E2"/>
  <path d="M179 181C179 168.85 188.85 159 201 159H311C323.15 159 333 168.85 333 181V190C333 202.15 323.15 212 311 212H201C188.85 212 179 202.15 179 190V181Z" fill="#2A4356"/>
  <path d="M333 261C333 248.85 323.15 239 311 239H201C188.85 239 179 248.85 179 261V270C179 282.15 188.85 292 201 292H311C323.15 292 333 282.15 333 270V261Z" fill="#2A4356"/>
</svg>