<?xml version="1.0" encoding="UTF-8"?>
<svg width="64" height="64" viewBox="0 0 64 64" fill="none" xmlns="http://www.w3.org/2000/svg">
  <rect width="64" height="64" rx="12" fill="url(#gradient)"/>
  <g transform="translate(12, 12)">
    <path d="M20 8c-6.6 0-12 5.4-12 12s5.4 12 12 12 12-5.4 12-12-5.4-12-12-12zm0 18c-3.3 0-6-2.7-6-6s2.7-6 6-6 6 2.7 6 6-2.7 6-6 6z" fill="white"/>
    <circle cx="20" cy="20" r="3" fill="#10B981"/>
    <path d="M12 16h3v8h-3z" fill="#22C55E"/>
    <path d="M25 16h3v8h-3z" fill="#22C55E"/>
    <path d="M16 12h8v3h-8z" fill="#22C55E"/>
    <circle cx="16" cy="18" r="1" fill="#EF4444"/>
    <circle cx="24" cy="18" r="1" fill="#EF4444"/>
    <circle cx="20" cy="15" r="1" fill="#F59E0B"/>
  </g>
  <defs>
    <linearGradient id="gradient" x1="0%" y1="0%" x2="100%" y2="100%">
      <stop offset="0%" style="stop-color:#10B981;stop-opacity:1" />
      <stop offset="50%" style="stop-color:#059669;stop-opacity:1" />
      <stop offset="100%" style="stop-color:#047857;stop-opacity:1" />
    </linearGradient>
  </defs>
</svg>